# xmcd
#
# Track frame offsets:
#	150
#	16201
#	32784
#	50001
#	67906
#	79277
#	118548
#	132005
#	152187
#
# Disc length: 2314 seconds
#
# Revision: 0
# Processed by: cddbd v1.5.1PL0 Copyright (c) Steve Scherf et al.
# Submitted via: EasyCDDAExtractor 8.2.0.1
#
DISCID=6f090809
DTITLE=Eric Clapton - Slowhand
DYEAR=1900
DGENRE=Blues
TTITLE0=Cocaine
TTITLE1=Wonderful Tonight
TTITLE2=Lay Down Sally
TTITLE3=Next Time You See Her
TTITLE4=We're All The Way
TTITLE5=Core
TTITLE6=May You Never
TTITLE7=Mean Old Frisco
TTITLE8=Peaches And Diesel
EXTD=
EXTT0=
EXTT1=
EXTT2=
EXTT3=
EXTT4=
EXTT5=
EXTT6=
EXTT7=
EXTT8=
PLAYORDER=
